HIERARCHY
ROOT Hips
{
	OFFSET 0.000000 0.000000 0.000000
	CHANNELS 6 Xposition Yposition Zposition Zrotation Yrotation Xrotation 
	JOINT LHipJoint
	{
		OFFSET 0.000000 0.000000 0.000000
		CHANNELS 3 Zrotation Yrotation Xrotation
		JOINT LeftUpLeg
		{
			OFFSET 1.363060 -1.794630 0.839290
			CHANNELS 3 Zrotation Yrotation Xrotation
			JOINT LeftLeg
			{
				OFFSET 2.448110 -6.726130 0.000000
				CHANNELS 3 Zrotation Yrotation Xrotation
				JOINT LeftFoot
				{
					OFFSET 2.562200 -7.039590 0.000000
					CHANNELS 3 Zrotation Yrotation Xrotation
					JOINT LeftToeBase
					{
						OFFSET 0.157640 -0.433110 2.322550
						CHANNELS 3 Zrotation Yrotation Xrotation
						End Site
						{
							OFFSET 0.000000 0.000000 0.000000
						}
					}
				}
			}
		}
	}
	JOINT RHipJoint
	{
		OFFSET 0.000000 0.000000 0.000000
		CHANNELS 3 Zrotation Yrotation Xrotation
		JOINT RightUpLeg
		{
			OFFSET -1.305520 -1.794630 0.839290
			CHANNELS 3 Zrotation Yrotation Xrotation
			JOINT RightLeg
			{
				OFFSET -2.542530 -6.985550 0.000000
				CHANNELS 3 Zrotation Yrotation Xrotation
				JOINT RightFoot
				{
					OFFSET -2.568260 -7.056230 0.000000
					CHANNELS 3 Zrotation Yrotation Xrotation
					JOINT RightToeBase
					{
						OFFSET -0.164730 -0.452590 2.363150
						CHANNELS 3 Zrotation Yrotation Xrotation
						End Site
						{
							OFFSET 0.000000 0.000000 0.000000
						}
					}
				}
			}
		}
	}
	JOINT LowerBack
	{
		OFFSET 0.000000 0.000000 0.000000
		CHANNELS 3 Zrotation Yrotation Xrotation
		JOINT Spine
		{
			OFFSET 0.028270 2.035590 -0.193380
			CHANNELS 3 Zrotation Yrotation Xrotation
			JOINT Spine1
			{
				OFFSET 0.056720 2.048850 -0.042750
				CHANNELS 3 Zrotation Yrotation Xrotation
				JOINT Neck
				{
					OFFSET 0.000000 0.000000 0.000000
					CHANNELS 3 Zrotation Yrotation Xrotation
					JOINT Neck1
					{
						OFFSET -0.054170 1.746240 0.172020
						CHANNELS 3 Zrotation Yrotation Xrotation
						JOINT Head
						{
							OFFSET 0.104070 1.761360 -0.123970
							CHANNELS 3 Zrotation Yrotation Xrotation
							End Site
							{
								OFFSET 0.000000 0.000000 0.000000
							}
						}
					}
				}
				JOINT LeftShoulder
				{
					OFFSET 0.000000 0.000000 0.000000
					CHANNELS 3 Zrotation Yrotation Xrotation
					JOINT LeftArm
					{
						OFFSET 3.362410 1.200890 -0.311210
						CHANNELS 3 Zrotation Yrotation Xrotation
						JOINT LeftForeArm
						{
							OFFSET 4.983000 -0.000000 -0.000000
							CHANNELS 3 Zrotation Yrotation Xrotation
							JOINT LeftHand
							{
								OFFSET 3.483560 -0.000000 -0.000000
								CHANNELS 3 Zrotation Yrotation Xrotation
								JOINT LeftFingerBase
								{
									OFFSET 0.000000 0.000000 0.000000
									CHANNELS 3 Zrotation Yrotation Xrotation
									JOINT LeftHandIndex1
									{
										OFFSET 0.715260 -0.000000 -0.000000
										CHANNELS 3 Zrotation Yrotation Xrotation
										End Site
										{
											OFFSET 0.000000 0.000000 0.000000
										}
									}
								}
								JOINT LThumb
								{
									OFFSET 0.000000 0.000000 0.000000
									CHANNELS 3 Zrotation Yrotation Xrotation
									End Site
									{
										OFFSET 0.000000 0.000000 0.000000
									}
								}
							}
						}
					}
				}
				JOINT RightShoulder
				{
					OFFSET 0.000000 0.000000 0.000000
					CHANNELS 3 Zrotation Yrotation Xrotation
					JOINT RightArm
					{
						OFFSET -3.136600 1.374050 -0.404650
						CHANNELS 3 Zrotation Yrotation Xrotation
						JOINT RightForeArm
						{
							OFFSET -5.241900 -0.000000 -0.000000
							CHANNELS 3 Zrotation Yrotation Xrotation
							JOINT RightHand
							{
								OFFSET -3.444170 -0.000000 -0.000000
								CHANNELS 3 Zrotation Yrotation Xrotation
								JOINT RightFingerBase
								{
									OFFSET 0.000000 0.000000 0.000000
									CHANNELS 3 Zrotation Yrotation Xrotation
									JOINT RightHandIndex1
									{
										OFFSET -0.622530 -0.000000 -0.000000
										CHANNELS 3 Zrotation Yrotation Xrotation
										End Site
										{
											OFFSET 0.000000 0.000000 0.000000
										}
									}
								}
								JOINT RThumb
								{
									OFFSET 0.000000 0.000000 0.000000
									CHANNELS 3 Zrotation Yrotation Xrotation
									End Site
									{
										OFFSET 0.000000 0.000000 0.000000
									}
								}
							}
						}
					}
				}
			}
		}
	}
}
MOTION
Frames: 4
Frame Time: 0.008333
-6.225469 17.674945 37.871269 -132.339876 -82.440809 144.488799 0.266769 -2.686746 -1.927986 -12.135420 3.451081 -15.468707 -2.093811 6.065894 13.830698 2.241374 -4.285608 6.812479 0.772800 -5.613000 -15.665700 -2.742410 1.522099 -3.531573 2.200149 -0.851681 2.879339 1.142601 -0.135907 1.113347 0.011815 -5.724789 16.418429 0.000000 0.000000 0.000000 4.613984 3.678461 -8.663426 1.025541 3.777219 -3.646410 -0.926129 1.809530 -5.018606 -23.738225 -8.999719 6.496897 13.256101 -23.710748 5.079422 20.848500 -12.161300 3.960600 -9.090629 -10.460597 1.970440 -77.163547 11.012358 35.281443 16.759648 -23.860130 -4.748090 1.403590 -0.721513 -46.092720 -14.436867 -8.346071 1.796300 -7.125000 0.000000 0.000000 -29.307400 22.796900 18.105100 5.437298 5.834691 1.545358 36.171090 23.442034 -17.386794 -100.199165 58.481603 -80.078205 0.460702 4.505671 61.302533 -61.620597 22.440618 -28.208200 7.125000 0.000000 0.000000 -17.702300 2.529700 -19.400000 
-6.225685 17.674945 37.872350 -132.328290 -82.438207 144.475408 0.263434 -2.692041 -1.929134 -12.133517 3.473180 -15.483295 -2.091260 6.071652 13.849626 2.247158 -4.310478 6.808807 0.771200 -5.607400 -15.649400 -2.747262 1.517185 -3.529765 2.200660 -0.851938 2.878812 1.142624 -0.136227 1.113213 0.011575 -5.725098 16.418304 0.000000 0.000000 0.000000 4.482562 3.643514 -8.617940 1.088700 3.720807 -3.652394 -0.619993 1.818095 -5.051572 -23.951189 -8.950687 6.471254 13.295270 -23.697449 5.065998 20.934000 -12.152100 3.990200 -9.067225 -10.449467 1.940565 -77.420241 10.998490 35.163702 16.845656 -23.952307 -4.790646 1.408735 -0.730060 -46.406649 -14.654619 -8.198243 1.779200 -7.125000 0.000000 0.000000 -29.472800 22.928600 18.135200 5.461096 5.799816 1.579107 36.417137 23.161923 -16.499641 -100.105615 58.425794 -79.909895 0.082477 4.540726 57.068809 -60.178202 21.159686 -25.398000 7.125000 0.000000 0.000000 -17.258800 -0.208100 -18.035200 
-6.226117 17.674945 37.873755 -132.374108 -82.440690 144.522735 0.257587 -2.697643 -1.928634 -12.140694 3.501441 -15.497428 -2.090294 6.072166 13.853712 2.254800 -4.342623 6.814650 0.768400 -5.597600 -15.621300 -2.753186 1.512048 -3.527742 2.200849 -0.852063 2.878590 1.142642 -0.136325 1.113170 0.011368 -5.725187 16.418261 0.000000 0.000000 0.000000 4.323874 3.603724 -8.572943 1.158065 3.657893 -3.662433 -0.279041 1.827232 -5.101210 -24.174921 -8.906288 6.461493 13.319895 -23.681192 5.057945 21.008000 -12.141900 4.014700 -9.038456 -10.435250 1.907137 -77.720365 11.010744 34.996474 16.944076 -24.058440 -4.839783 1.413786 -0.739870 -46.805468 -14.898931 -8.011397 1.752700 -7.125000 0.000000 0.000000 -29.662400 23.094900 18.155900 5.485699 5.766688 1.615417 36.705232 22.892830 -15.477969 -100.045359 58.361838 -79.724927 -0.351919 4.525976 52.192506 -58.946850 19.818291 -22.811900 7.125000 0.000000 0.000000 -16.934200 -2.840500 -16.837600 
-6.226550 17.675161 37.875052 -132.457538 -82.442241 144.611714 0.251349 -2.702151 -1.927316 -12.150880 3.528354 -15.509260 -2.090464 6.069215 13.847474 2.261047 -4.368316 6.823269 0.765400 -5.586900 -15.590500 -2.758699 1.507981 -3.526250 2.200747 -0.852057 2.878653 1.142655 -0.136220 1.113209 0.011184 -5.725078 16.418292 0.000000 0.000000 0.000000 4.183038 3.561235 -8.536747 1.219406 3.593165 -3.672731 0.023197 1.829929 -5.146854 -24.358504 -8.870881 6.454666 13.328087 -23.655687 5.056630 21.059500 -12.127700 4.028200 -9.010928 -10.415264 1.875318 -77.996792 11.045452 34.832450 17.042839 -24.164009 -4.887423 1.417104 -0.746163 -47.097883 -15.070597 -7.906667 1.740500 -7.125000 0.000000 0.000000 -29.789500 23.187100 18.184600 5.510220 5.733552 1.655635 37.058993 22.639492 -14.318371 -100.100336 58.291018 -79.588053 -0.819987 4.444796 46.777365 -58.021901 18.520772 -20.602200 7.125000 0.000000 0.000000 -16.761300 -5.196400 -15.884900 
